# xmcd CD database file
#
# Track frame offsets:
#	150
#	48825
#	84862
#	145350
#	176325
#	208537
#	285637
#
# Disc length: 4652 seconds
#
# Revision: 0
# Processed by: cddbd v1.5.2PL0 Copyright (c) Steve Scherf et al.
# Submitted via: CDex 1.51
#
DISCID=58122a07
DTITLE=The Aardvark Jazz Orchestra - Trumpet Madness
DYEAR=2005
DGENRE=Jazz
TTITLE0=Flexology
TTITLE1=JB's Dreamtime
TTITLE2=Choices for Orchestra and Improviser
TTITLE3=Morph
TTITLE4=Trumpet Madness
TTITLE5=Spirals
TTITLE6=Voices Like Trumpets
EXTD=YEAR: 2005
EXTT0=
EXTT1=
EXTT2=
EXTT3=
EXTT4=
EXTT5=
EXTT6=
PLAYORDER=
